<svg xmlns="http://www.w3.org/2000/svg" data-name="Camada 2" viewBox="0 0 2461.92 476.09"><path d="M365.65.95v60h-97.6v414.7H98.31V60.95H0v-60h365.65ZM636 2.11v472.93h-62.14V370.09H365.65v-56.46L573.86 2.11H636Zm1353.44-1.06v472.93h-62.62V369.03h-209.81v-56.46L1926.82 1.05h62.62ZM982 0v475.04H675.08V0l252.53 373.34V0H982Zm351.82 321.03c0 84.1-70.3 155.06-155.06 155.06s-157.69-67.02-157.69-151.12c0-34.17 15.11-75.56 45.34-116.95L1218.84 1.05h75.56l-129.44 176.09 19.71-1.97c84.1 0 149.15 65.7 149.15 145.86Zm385.31 153.72h-348V.29h177.7c74.04 0 133.95 59.31 133.95 132.61s-59.91 131.94-133.95 131.94l170.3 209.91Zm526.27-206.39L2461.92 0v475.04h-433.04V0l216.52 268.36Z" data-name="Camada 1" style="fill:#b5afbf"/></svg>